<?xml version="1.0" encoding="utf-8"?>
<!-- Generator: Adobe Illustrator 22.0.0, SVG Export Plug-In . SVG Version: 6.00 Build 0)  -->
<svg version="1.1" id="Layer_1" xmlns="http://www.w3.org/2000/svg" xmlns:xlink="http://www.w3.org/1999/xlink" x="0px" y="0px"
	 viewBox="0 0 1000 248" style="enable-background:new 0 0 1000 248;" xml:space="preserve">
<style type="text/css">
	.st0{fill:#6D6D6D;}
	.st1{fill:#F9B9BA;}
	.st2{fill:#F9B9BA;stroke:#F9B9BA;stroke-width:4;stroke-miterlimit:10;}
</style>
<g>
	<path class="st0" d="M82.7,11.6c17.6,0,30.6,2.8,38.9,8.3c8.3,5.5,12.5,13.5,12.5,24.1c0,2.6-0.3,5-0.9,7.2c-0.6,2.2-1.3,4.2-2.2,6
		c-0.9,1.8-1.9,3.4-3.1,4.8c-1.2,1.4-2.3,2.6-3.6,3.7c-2.9,2.5-6.1,4.4-9.7,5.8v1.4c5.7,0.7,10.7,2.4,15.2,5.1
		c1.9,1.2,3.7,2.6,5.6,4.3s3.5,3.8,4.9,6.3c1.4,2.5,2.6,5.3,3.5,8.6c0.9,3.3,1.3,7,1.3,11.2c0,6.4-1.2,12.1-3.5,17.3
		c-2.3,5.1-5.8,9.4-10.3,13c-4.6,3.6-10.3,6.3-17.1,8.2c-6.8,1.9-14.7,2.8-23.7,2.8c-8.3,0-15.1-0.5-20.4-1.6
		c-5.2-1-9.3-2.5-12.2-4.5c-2.9-2-4.9-4.4-6-7.2c-1.1-2.8-1.6-6-1.6-9.5V26.9c0-3.3-2.3-5-6.9-5c-3.3,0-6.7,0.5-10.2,1.5
		c-3.4,1-6.5,2.4-9.3,4.1c-2.8,1.7-5,3.8-6.8,6.2c-1.8,2.4-2.6,5-2.6,7.8c0,1.9,0.3,3.5,0.8,4.7c0.5,1.2,1.1,2,1.8,2.6
		c0.7,0.6,1.4,0.9,2.1,1.1c0.7,0.2,1.2,0.2,1.5,0.2c1.5,0,2.8-0.3,3.7-0.8c1-0.5,1.9-1.1,2.6-1.6c0.8-0.6,1.5-1.1,2.2-1.6
		c0.7-0.5,1.5-0.8,2.4-0.8c0.7,0,1.5,0.2,2.3,0.5c0.8,0.3,1.6,0.9,2.3,1.6c0.7,0.7,1.3,1.7,1.8,2.9c0.5,1.2,0.7,2.6,0.7,4.3
		c0,2.4-0.5,4.5-1.4,6.3c-0.9,1.8-2.2,3.2-3.7,4.4c-1.5,1.2-3.2,2.1-5.1,2.6c-1.9,0.6-3.8,0.9-5.7,0.9c-2.9,0-5.6-0.5-7.9-1.5
		c-2.3-1-4.3-2.4-6-4.2c-1.6-1.8-2.9-3.8-3.7-6.2C4.4,54.6,4,52,4,49.4c0-5.1,0.9-9.5,2.8-13.4c1.9-3.9,4.5-7.2,8-10
		c3.4-2.8,7.6-5.1,12.4-7c4.8-1.9,10.1-3.3,16-4.4c5.8-1.1,12.1-1.9,18.8-2.3C68.6,11.8,75.5,11.6,82.7,11.6z M80.9,131.8
		c0,1.4,0.1,2.7,0.4,4c0.3,1.2,0.8,2.3,1.6,3.2c0.8,0.9,1.9,1.6,3.4,2.2c1.4,0.5,3.3,0.8,5.6,0.8c3.3,0,6.4-1,9.2-2.9
		c2.8-1.9,5.2-4.4,7.2-7.4c2-3,3.6-6.4,4.7-10.1c1.1-3.7,1.6-7.5,1.6-11.2c0-5.5-0.7-10.4-2.2-14.7c-1.5-4.2-3.6-7.8-6.3-10.7
		c-2.7-2.9-5.8-5.2-9.5-6.8c-3.7-1.6-7.6-2.5-11.9-2.8l1.8-4.7c2.7,0.1,5.2-0.2,7.7-1.1c2.4-0.9,4.6-2.3,6.4-4.5
		c1.9-2.1,3.3-5,4.4-8.6c1.1-3.6,1.6-8.2,1.6-13.6c0-3.7-0.5-7.1-1.4-10c-0.9-3-2.1-5.5-3.6-7.5c-1.5-2-3.2-3.6-5.2-4.7
		c-2-1.1-4-1.6-6.1-1.6c-1.3,0-2.5,0.2-3.7,0.5c-1.2,0.3-2.2,0.8-3.1,1.6c-0.9,0.7-1.6,1.7-2.1,2.9c-0.5,1.2-0.8,2.7-0.8,4.4V131.8z
		"/>
	<path class="st0" d="M185.8,106.1c0,1.9,0.3,4.1,0.9,6.3c0.6,2.3,1.4,4.6,2.5,6.9c1.1,2.3,2.4,4.5,4.1,6.6c1.6,2.1,3.5,4,5.6,5.6
		s4.4,3,7,3.9c2.6,1,5.4,1.5,8.4,1.5c2.1,0,4.1-0.2,5.9-0.7c1.8-0.5,3.5-1.2,5.1-2c1.6-0.9,3.1-1.8,4.6-3c1.5-1.1,2.9-2.3,4.4-3.6
		l2.3,2.2c-1.4,1.9-3.2,4-5.4,6.2c-2.2,2.3-4.8,4.4-7.9,6.3c-3.1,2-6.7,3.6-10.9,4.9c-4.1,1.3-8.9,2-14.1,2c-5.3,0-10.5-1-15.5-2.9
		c-5-1.9-9.5-4.8-13.4-8.6c-3.9-3.8-7-8.6-9.4-14.3c-2.3-5.7-3.5-12.4-3.5-20.1c0-5.5,0.7-10.6,2.1-15.2c1.4-4.6,3.3-8.8,5.7-12.5
		c2.4-3.7,5.2-7,8.4-9.8c3.2-2.8,6.6-5.1,10.1-7c3.5-1.9,7.1-3.3,10.8-4.2c3.7-0.9,7.2-1.4,10.6-1.4c4.5,0,8.4,0.5,11.8,1.5
		c3.3,1,6.1,2.3,8.4,3.9c2.2,1.6,3.9,3.5,5,5.7c1.1,2.2,1.6,4.4,1.6,6.8c0,2.9-0.8,5.4-2.5,7.7c-1.6,2.3-3.8,4.3-6.6,6L185.8,106.1z
		 M204.1,87.6c0.8-0.5,1.4-1,2-1.4c0.5-0.5,0.9-1,1.2-1.6c0.3-0.6,0.5-1.4,0.7-2.4c0.2-0.9,0.2-2.1,0.2-3.5c0-1.5-0.2-3.2-0.5-5.1
		c-0.3-1.9-0.9-3.6-1.7-5.2c-0.8-1.6-1.8-3-3-4.1c-1.2-1.1-2.7-1.6-4.4-1.6c-2.2,0-4.1,0.7-5.6,2c-1.6,1.3-2.8,3-3.8,5.1
		c-1,2.1-1.8,4.4-2.4,7.1c-0.6,2.6-1,5.3-1.3,8c-0.3,2.7-0.5,5.2-0.5,7.7c-0.1,2.5-0.1,4.6-0.1,6.3L204.1,87.6z"/>
	<path class="st0" d="M275.3,60.8c-2.1,0-4,0.2-5.8,0.7c-1.8,0.5-3.3,1.1-4.6,1.8c-1.3,0.7-2.3,1.5-3,2.4c-0.7,0.9-1.1,1.7-1.1,2.5
		c0,0.9,0.5,1.6,1.4,2c0.9,0.4,2,0.9,3.1,1.4c1.2,0.5,2.2,1.2,3.1,2.2c0.9,0.9,1.4,2.4,1.4,4.3c0,1.3-0.3,2.5-0.8,3.5
		c-0.5,1.1-1.2,2-2.1,2.8c-0.9,0.8-1.9,1.5-3.1,1.9c-1.2,0.5-2.4,0.7-3.7,0.7c-3.4,0-6.2-1.2-8.3-3.5c-2.1-2.3-3.1-5.4-3.1-9.2
		c0-3.7,1-6.9,2.9-9.5c1.9-2.6,4.5-4.8,7.6-6.5c3.1-1.7,6.7-3,10.6-3.8c4-0.8,7.9-1.2,11.9-1.2c4.7,0,9.3,0.5,13.6,1.6
		c4.3,1,8.1,2.7,11.5,4.9c3.3,2.3,6,5.1,7.9,8.6c2,3.5,3,7.7,3,12.6v51.6c0,0.5,0,1.2,0.1,1.8c0.1,0.7,0.2,1.3,0.5,1.8
		c0.2,0.5,0.6,1,1.1,1.4c0.5,0.4,1.2,0.5,2.1,0.5c1.1,0,2.1-0.4,3.1-1.2c0.9-0.8,1.8-1.7,2.5-2.5l2.3,1.9c-0.9,1.3-2,2.7-3.3,4.2
		c-1.3,1.5-2.8,3-4.7,4.3c-1.8,1.3-4,2.5-6.4,3.4c-2.4,0.9-5.2,1.4-8.3,1.4c-3.8,0-7.2-1.1-10.2-3.4c-3-2.3-4.9-5.8-5.8-10.5
		c-1.9,2.6-4,4.8-6.1,6.6c-2.1,1.8-4.2,3.2-6.4,4.3c-2.2,1.1-4.4,1.9-6.6,2.4c-2.2,0.5-4.5,0.7-6.7,0.7c-2.9,0-5.8-0.5-8.5-1.4
		c-2.7-0.9-5.2-2.4-7.3-4.3c-2.2-2-3.9-4.5-5.2-7.7c-1.3-3.2-2-7-2-11.6c0-5.5,1.1-10.1,3.3-13.6c2.2-3.5,5.1-6.5,8.6-8.9
		c3.6-2.4,7.6-4.5,12.1-6.2c4.5-1.7,9.2-3.5,13.9-5.4c3.5-1.4,6.1-3.5,7.7-6.3c1.6-2.8,2.4-5.6,2.4-8.5c0-4.5-1.3-8.1-4-10.8
		C283.5,62.1,279.9,60.8,275.3,60.8z M289.8,100.8c0-1.5-0.5-2.7-1.5-3.5c-1-0.8-2.2-1.2-3.7-1.2c-2.1,0-4.2,0.5-6.1,1.5
		c-1.9,1-3.6,2.4-5.1,4.3c-1.5,1.9-2.6,4.2-3.5,7c-0.9,2.8-1.3,6-1.3,9.6c0,3.5,0.3,6.5,0.8,8.8c0.5,2.3,1.2,4.2,2.1,5.5
		c0.9,1.4,1.9,2.3,3.1,2.9c1.2,0.5,2.4,0.8,3.7,0.8c1.6,0,3.1-0.4,4.5-1.2c1.4-0.8,2.6-1.9,3.7-3.1c1-1.3,1.9-2.7,2.5-4.3
		c0.6-1.6,0.9-3.2,0.9-4.7V100.8z"/>
	<path class="st0" d="M421.6,132.2c0,0.5,0,1.1,0.1,1.8c0.1,0.6,0.2,1.2,0.5,1.8c0.2,0.6,0.6,1,1.1,1.4c0.5,0.4,1.2,0.5,2.1,0.5
		c1.2,0,2.2-0.4,3.1-1.2c0.9-0.8,1.8-1.7,2.6-2.5l2.2,1.9c-0.9,1.3-2.1,2.7-3.4,4.2c-1.4,1.6-3,3-5,4.4c-1.9,1.4-4.2,2.6-6.7,3.5
		c-2.5,0.9-5.3,1.4-8.5,1.4c-2.7,0-5-0.4-7-1c-2-0.7-3.7-1.6-5-2.8c-1.4-1.2-2.4-2.6-3.1-4.2c-0.7-1.6-1-3.3-1-5.2v-4.1
		c-3,3.3-6.2,6.2-9.6,8.7c-1.5,1.1-3,2.2-4.7,3.2c-1.6,1-3.3,2-5.1,2.8c-1.8,0.8-3.6,1.5-5.5,2c-1.9,0.5-3.8,0.7-5.7,0.7
		c-3.7,0-6.8-0.7-9.4-2c-2.6-1.3-4.7-3-6.3-5.2c-1.6-2.1-2.7-4.5-3.5-7.2c-0.7-2.7-1.1-5.4-1.1-8V70.6c0-0.5,0-1.1-0.1-1.8
		c-0.1-0.6-0.2-1.2-0.5-1.8c-0.2-0.6-0.6-1-1.1-1.4c-0.5-0.4-1.2-0.5-2.1-0.5c-1.1,0-2.1,0.4-3.1,1.2c-0.9,0.8-1.8,1.7-2.5,2.5
		l-2.3-1.9c0.9-1.3,2.1-2.7,3.4-4.2c1.4-1.6,3-3,5-4.4c1.9-1.4,4.2-2.6,6.7-3.5c2.5-0.9,5.3-1.4,8.4-1.4c2.7,0,5,0.4,7,1
		c2,0.7,3.7,1.6,5,2.8c1.3,1.2,2.3,2.6,3,4.2c0.7,1.6,1,3.3,1,5.2v61c0,0.9,0.1,1.7,0.4,2.6c0.3,0.9,0.7,1.7,1.2,2.4
		c0.5,0.7,1.2,1.3,2,1.8c0.8,0.5,1.7,0.7,2.8,0.7c1.8,0,3.5-0.5,5.3-1.4c1.8-0.9,3.4-2,4.8-3.2c1.5-1.2,2.7-2.5,3.8-3.7
		c1.1-1.2,1.8-2.1,2.3-2.7V70.6c0-0.5,0-1.1-0.1-1.8c-0.1-0.6-0.2-1.2-0.5-1.8c-0.2-0.6-0.6-1-1.1-1.4c-0.5-0.4-1.2-0.5-2.1-0.5
		c-1.1,0-2.1,0.4-3.1,1.2c-0.9,0.8-1.8,1.7-2.5,2.5l-2.3-1.9c0.9-1.3,2.1-2.7,3.4-4.2c1.4-1.6,3-3,5-4.4c1.9-1.4,4.2-2.6,6.7-3.5
		c2.5-0.9,5.3-1.4,8.4-1.4c2.7,0,5,0.4,7,1c2,0.7,3.7,1.6,5,2.8c1.3,1.2,2.3,2.6,3,4.2c0.7,1.6,1,3.3,1,5.2V132.2z"/>
	<path class="st0" d="M475.2,61.1v67.5c0,3.2,0.6,5.5,1.8,6.7c1.2,1.2,2.9,1.9,5,1.9c1.6,0,3.1-0.5,4.4-1.4c1.3-0.9,2.4-1.9,3.3-3.1
		c1.1-1.3,2-2.8,2.8-4.5l2.8,1.3c-0.9,1.9-2,4.1-3.2,6.4c-1.2,2.3-2.9,4.5-5,6.4c-2.1,2-4.7,3.6-7.8,5c-3.1,1.3-7.1,2-11.8,2
		c-2.7,0-5.2-0.4-7.7-1.2s-4.7-2-6.6-3.7c-1.9-1.7-3.5-3.8-4.6-6.4c-1.2-2.6-1.7-5.6-1.7-9.2V61.1h-10.2v-6.6c1.7,0,4.1-0.4,7.1-1.3
		c3-0.9,6.2-2.4,9.4-4.4c3.2-2.1,6.2-4.8,8.9-8.3c2.7-3.5,4.7-7.8,5.8-12.9h7.3v26.9h14.9c4.9,0,7.3-0.8,7.3-2.5
		c0-0.6-0.3-1-0.9-1.2c-0.6-0.2-1.3-0.5-2.1-0.8c-0.8-0.3-1.4-0.8-2.1-1.4c-0.6-0.6-0.9-1.6-0.9-3c0-1.7,0.5-3,1.6-4
		c1.1-1,2.4-1.5,4.2-1.5c1.1,0,2.1,0.2,2.9,0.7c0.8,0.5,1.5,1.1,2.1,1.8c0.5,0.8,1,1.6,1.2,2.6c0.3,1,0.4,1.9,0.4,2.9
		c0,4-1.1,7.1-3.4,9.4c-2.3,2.3-5.9,3.5-11,3.5H475.2z"/>
	<path class="st0" d="M581.4,67.6c0,11.1-1.1,21.9-3.2,32.3c-2.2,10.4-5.1,20.1-8.9,29.2c-3.8,9.1-8.3,17.4-13.6,24.9
		c-5.2,7.5-10.9,14-17.1,19.3c-6.1,5.4-12.6,9.5-19.5,12.5c-6.8,3-13.8,4.5-20.8,4.5c-5.4,0-9.5-0.9-12.4-2.7
		c-2.9-1.8-4.4-4.2-4.4-7.3c0-1.2,0.2-2.3,0.5-3.4c0.4-1.1,0.9-2.1,1.5-2.9c0.6-0.9,1.3-1.5,2.2-2.1c0.9-0.5,1.8-0.8,2.7-0.8
		c1.2,0,2.1,0.6,2.9,1.7c0.8,1.2,1.6,2.4,2.4,3.8c0.9,1.4,1.9,2.6,3.1,3.8c1.2,1.2,2.9,1.7,5,1.7c2.7,0,5.6-0.5,8.6-1.4
		c3-0.9,6-2.3,9-4.1c3-1.8,6-3.9,9-6.4c3-2.5,6-5.3,8.9-8.4c-1.7-6.1-3.7-12.9-5.9-20.1c-2.2-7.3-4.6-14.6-7-22
		c-2.5-7.4-5-14.5-7.6-21.3c-2.6-6.8-5.1-12.9-7.6-18.2c-2.5-5.3-4.8-9.5-7.1-12.7c-2.3-3.2-4.3-4.8-6.1-4.8c-1.2,0-2.1,0.2-2.7,0.5
		c-0.6,0.4-1.4,0.9-2.2,1.6l-1.8-2.3c1.2-1,2.5-2.1,3.8-3.2c1.3-1.1,2.9-2.1,4.7-3c1.8-0.9,4-1.7,6.4-2.2c2.4-0.6,5.4-0.9,8.8-0.9
		c3.7,0,7.2,0.8,10.4,2.5c3.2,1.7,6.1,4.8,8.7,9.3c1.9,3.3,3.8,7.4,5.9,12c2,4.7,4.1,9.9,6.2,15.7c2.1,5.8,4.2,12,6.3,18.8
		c2.1,6.7,4.2,13.8,6.3,21.1c3.8-7.9,6.8-16.3,9.1-25.1c2.3-8.9,3.5-18,3.5-27.3c0-3.3-0.2-6.2-0.6-8.6c-0.4-2.4-0.9-4.4-1.5-6.1
		c-0.5-1.7-1-3.1-1.5-4.3c-0.4-1.2-0.6-2.2-0.6-3.1c0-0.9,0.4-1.7,1.1-2.3s1.6-1.1,2.6-1.5c1-0.4,2.1-0.6,3.1-0.8
		c1.1-0.2,2-0.2,2.7-0.2c1.6,0,2.9,0.3,3.8,1c0.9,0.7,1.5,1.6,2,2.9c0.4,1.2,0.7,2.8,0.7,4.5C581.4,63.5,581.4,65.4,581.4,67.6z"/>
	<path class="st1" d="M668.8,161.3c2.4,0,4.8-0.4,7.2-1.3c2.4-0.9,4.5-2.3,6.3-4.4c1.9-2,3.4-4.7,4.5-8c1.2-3.3,1.7-7.3,1.7-12
		c0-5.1-1.3-10.1-3.8-14.9c-2.5-4.8-5.7-9.5-9.5-14.2c-3.8-4.7-7.9-9.3-12.3-13.9c-4.4-4.6-8.5-9.3-12.3-14.1
		c-3.8-4.8-7-9.7-9.5-14.8c-2.5-5.1-3.8-10.4-3.8-15.9c0-5.5,1-10.5,3.1-15s4.8-8.3,8.3-11.4c3.5-3.1,7.6-5.6,12.2-7.3
		c4.7-1.7,9.6-2.6,14.9-2.6c5.7,0,10.7,0.6,15.1,1.8c4.4,1.2,8.2,2.8,11.2,4.8c3.1,2,5.4,4.4,7,7.2c1.6,2.8,2.4,5.7,2.4,8.8
		c0,1.5-0.2,3-0.6,4.5s-1.1,3-2,4.2c-0.9,1.3-2.1,2.3-3.5,3.2c-1.4,0.9-3,1.3-4.9,1.3c-2.3,0-3.9-0.7-5-2.1
		c-1.1-1.4-1.9-3.1-2.4-5.1c-0.5-2-1-4.2-1.3-6.6c-0.4-2.4-0.9-4.6-1.7-6.6c-0.8-2-2-3.7-3.6-5.1c-1.6-1.4-3.9-2.1-6.9-2.1
		c-1.6,0-3.3,0.4-4.9,1.1c-1.6,0.7-3.1,1.8-4.4,3.3c-1.3,1.5-2.4,3.4-3.1,5.7c-0.8,2.3-1.2,5.1-1.2,8.2c0,3.7,0.8,7.2,2.3,10.7
		c1.5,3.5,3.5,6.9,6,10.3c2.5,3.4,5.3,6.8,8.5,10.1c3.2,3.4,6.5,6.8,9.8,10.2c3.3,3.4,6.6,7,9.8,10.6c3.2,3.6,6,7.4,8.5,11.3
		c2.5,3.9,4.5,8,6,12.2c1.5,4.3,2.3,8.7,2.3,13.4c0,6.9-1.3,13-4,18.4c-2.6,5.4-6.2,9.9-10.8,13.6c-4.5,3.7-9.8,6.5-15.9,8.4
		c-6.1,1.9-12.6,2.9-19.4,2.9c-6.2,0-11.7-0.8-16.5-2.3c-4.8-1.6-8.8-3.6-12.1-6.2c-3.3-2.6-5.8-5.5-7.4-8.7
		c-1.7-3.3-2.5-6.6-2.5-10.1c0-1.5,0.2-3,0.7-4.7c0.5-1.7,1.1-3.2,2-4.6c0.9-1.4,2-2.6,3.3-3.5c1.3-0.9,2.9-1.4,4.7-1.4
		c1.8,0,3.3,0.5,4.4,1.4c1.1,0.9,2,2.1,2.7,3.7c0.7,1.5,1.2,3.3,1.6,5.2c0.4,1.9,0.9,3.9,1.4,5.9c0.5,2,1.1,4,1.8,5.9
		c0.7,1.9,1.7,3.7,3,5.2c1.3,1.5,2.9,2.7,4.9,3.7C663.3,160.8,665.8,161.3,668.8,161.3z"/>
	<path class="st1" d="M737.7,69.4c0-1.8-0.4-3.3-1.2-4.6c-0.8-1.3-2.2-2-4.2-2c-1,0-1.9,0.2-2.6,0.5c-0.7,0.4-1.5,0.9-2.4,1.6
		l-1.9-2.3c1.4-1.2,3-2.3,4.7-3.4c1.7-1.1,3.6-2.1,5.6-3c2-0.9,4.2-1.6,6.5-2.1c2.3-0.5,4.7-0.8,7.3-0.8c2.7,0,5.1,0.4,7,1.3
		c1.9,0.9,3.6,1.9,4.9,3.1c1.3,1.2,2.3,2.4,3,3.7c0.7,1.3,1.1,2.4,1.2,3.3c1.2-1.7,2.7-3.3,4.3-4.7c1.7-1.4,3.5-2.6,5.5-3.6
		c2-1,4.1-1.8,6.3-2.3c2.2-0.5,4.5-0.8,6.9-0.8c4.9,0,9.3,1,13.2,3c4,2,7.3,5,10.2,8.9c2.8,4,5,8.9,6.5,14.7
		c1.5,5.8,2.3,12.6,2.3,20.3c0,8.9-0.9,16.4-2.8,22.7c-1.9,6.2-4.3,11.3-7.3,15.3c-3,4-6.5,6.8-10.3,8.6c-3.9,1.8-7.8,2.7-11.8,2.7
		c-3.3,0-6.3-0.3-8.8-1c-2.5-0.7-4.7-1.5-6.5-2.5c-1.8-1-3.3-2-4.6-3c-1.2-1-2.2-1.8-2.9-2.5v44.5c0,0.8-0.1,1.7-0.4,2.8
		c-0.2,1.1-0.8,2.1-1.8,3.1c-0.9,1-2.3,1.9-4.2,2.6c-1.9,0.7-4.4,1.1-7.6,1.1c-3.2,0-5.8-0.4-7.6-1.1c-1.9-0.8-3.3-1.7-4.2-2.7
		c-1-1.1-1.6-2.1-1.8-3.2c-0.2-1.1-0.4-1.9-0.4-2.6V69.4z M765.7,127.5c0,0.5,0.2,1.3,0.6,2.6c0.4,1.2,1.1,2.5,2,3.7
		c0.9,1.3,2.1,2.4,3.5,3.4c1.4,1,3.2,1.5,5.2,1.5c2.7,0,5-1,6.8-3.1c1.9-2,3.4-4.8,4.7-8.3c1.2-3.5,2.1-7.6,2.6-12.2
		c0.5-4.7,0.8-9.6,0.8-14.9c0-6.5-0.4-12-1-16.5c-0.7-4.5-1.7-8.1-3.1-10.9c-1.3-2.8-2.9-4.8-4.8-6c-1.9-1.2-3.9-1.9-6.3-1.9
		c-1.3,0-2.7,0.4-4,1.1c-1.3,0.8-2.5,1.7-3.6,2.8c-1.1,1.1-1.9,2.4-2.6,3.8c-0.7,1.4-1,2.7-1,4V127.5z"/>
	<path class="st1" d="M832.2,101.3c0-8,1.2-15,3.5-21c2.3-6,5.4-11,9.3-15c3.9-4,8.4-7,13.5-9c5.1-2,10.5-3,16.1-3
		c5.6,0,11,0.9,16.1,2.8c5.1,1.9,9.6,4.7,13.5,8.5c3.9,3.8,7,8.7,9.3,14.6c2.3,5.9,3.5,12.8,3.5,20.9c0,8-1.2,15-3.5,21.2
		c-2.3,6.1-5.4,11.3-9.3,15.5c-3.9,4.2-8.4,7.4-13.5,9.5c-5.1,2.2-10.5,3.2-16.1,3.2c-5.6,0-11-1-16.1-3.1c-5.1-2-9.6-5.1-13.5-9.1
		c-3.9-4-7-9-9.3-15.1C833.4,116.3,832.2,109.3,832.2,101.3z M888.4,100.4c0-4.9-0.2-9.6-0.5-14.1c-0.3-4.5-1-8.6-2-12.1
		c-1-3.5-2.4-6.3-4.2-8.4c-1.8-2.1-4.2-3.1-7.2-3.1c-3,0-5.4,1.1-7.2,3.3c-1.8,2.2-3.2,5.1-4.2,8.8c-1,3.6-1.6,7.7-1.9,12.4
		c-0.3,4.6-0.5,9.4-0.5,14.2c0,4.9,0.2,9.6,0.5,14.3c0.3,4.7,0.9,8.8,1.9,12.5c1,3.7,2.4,6.6,4.2,8.8c1.8,2.2,4.2,3.3,7.2,3.3
		c3,0,5.4-1.2,7.2-3.5c1.8-2.3,3.2-5.4,4.2-9.1c1-3.8,1.6-8,2-12.8C888.2,110.1,888.4,105.3,888.4,100.4z"/>
	<path class="st1" d="M963.4,61.1v67.5c0,3.2,0.6,5.5,1.8,6.7c1.2,1.2,2.9,1.9,5,1.9c1.6,0,3.1-0.5,4.4-1.4c1.3-0.9,2.4-1.9,3.3-3.1
		c1.1-1.3,2-2.8,2.8-4.5l2.8,1.3c-0.9,1.9-2,4.1-3.2,6.4c-1.2,2.3-2.9,4.5-5,6.4c-2.1,2-4.7,3.6-7.8,5c-3.1,1.3-7.1,2-11.8,2
		c-2.7,0-5.2-0.4-7.7-1.2c-2.5-0.8-4.7-2-6.6-3.7c-1.9-1.7-3.5-3.8-4.6-6.4c-1.2-2.6-1.7-5.6-1.7-9.2V61.1h-10.2v-6.6
		c1.7,0,4.1-0.4,7.1-1.3c3-0.9,6.2-2.4,9.4-4.4c3.2-2.1,6.2-4.8,8.9-8.3c2.7-3.5,4.7-7.8,5.8-12.9h7.3v26.9h14.9
		c4.9,0,7.3-0.8,7.3-2.5c0-0.6-0.3-1-0.9-1.2c-0.6-0.2-1.3-0.5-2.1-0.8c-0.8-0.3-1.4-0.8-2.1-1.4c-0.6-0.6-0.9-1.6-0.9-3
		c0-1.7,0.5-3,1.6-4c1.1-1,2.4-1.5,4.2-1.5c1.1,0,2.1,0.2,2.9,0.7c0.8,0.5,1.5,1.1,2.1,1.8c0.5,0.8,1,1.6,1.2,2.6
		c0.3,1,0.4,1.9,0.4,2.9c0,4-1.1,7.1-3.4,9.4c-2.3,2.3-5.9,3.5-11,3.5H963.4z"/>
</g>
<line class="st2" x1="53.3" y1="211.9" x2="246.8" y2="211.9"/>
<line class="st2" x1="389.6" y1="211.9" x2="980.6" y2="211.9"/>
<g>
	<g>
		<path class="st0" d="M306.5,210.8h-10.3v14.5c0,1.3-0.4,2.3-1.1,2.9s-1.8,0.9-3.2,0.9c-1.5,0-2.5-0.3-3.2-0.9
			c-0.7-0.6-1-1.6-1-2.9v-14.5h-4.1v-2.3h4.1v-16.4c-0.6,0.1-1.2,0.2-1.9,0.3c-0.7,0.1-1.5,0.4-2.2,0.6c-0.8,0.3-1.5,0.6-2.2,0.9
			c-0.7,0.4-1.4,0.8-2,1.3c-0.6,0.5-1,1-1.4,1.6s-0.5,1.2-0.5,1.9c0,0.6,0.1,1,0.2,1.3c0.1,0.3,0.3,0.6,0.5,0.7
			c0.2,0.2,0.4,0.3,0.6,0.3c0.2,0,0.3,0.1,0.4,0.1c0.4,0,0.8-0.1,1.1-0.2c0.3-0.1,0.5-0.3,0.8-0.5c0.2-0.2,0.4-0.3,0.6-0.5
			c0.2-0.1,0.4-0.2,0.7-0.2c0.2,0,0.4,0,0.7,0.1c0.2,0.1,0.5,0.2,0.6,0.5s0.4,0.5,0.5,0.8c0.1,0.3,0.2,0.8,0.2,1.2
			c0,0.7-0.1,1.3-0.4,1.8c-0.3,0.5-0.6,0.9-1,1.3c-0.4,0.3-0.9,0.6-1.5,0.7c-0.5,0.2-1.1,0.2-1.6,0.2c-0.8,0-1.6-0.1-2.2-0.4
			c-0.7-0.3-1.2-0.7-1.7-1.2c-0.5-0.5-0.8-1.1-1.1-1.8c-0.2-0.7-0.4-1.4-0.4-2.2c0-2,0.6-3.8,1.7-5.2c1.1-1.4,2.6-2.6,4.6-3.5
			s4.2-1.6,6.8-2s5.3-0.6,8.3-0.6c1.2,0,2.4,0,3.7,0c1.3,0,2.5,0.1,3.7,0.1c1.2,0.1,2.2,0.1,3.1,0.2c0.9,0.1,1.5,0.1,1.9,0.2
			c0.3,0.1,0.6,0.2,0.8,0.3s0.4,0.2,0.5,0.4c0.1,0.1,0.2,0.3,0.2,0.5c0,0.2,0.1,0.4,0.1,0.6c0,0.2,0,0.4-0.1,0.7
			c-0.1,0.3-0.1,0.5-0.2,0.7c-0.1,0.2-0.2,0.4-0.4,0.6c-0.2,0.2-0.3,0.2-0.6,0.2c-0.1,0-0.3-0.1-0.5-0.2c-0.2-0.1-0.4-0.3-0.7-0.5
			c-0.3-0.2-0.7-0.4-1.2-0.6s-1.2-0.4-2.1-0.6c-0.9-0.2-1.9-0.3-3.2-0.5c-1.3-0.1-2.8-0.2-4.6-0.2v16.7h10.3V210.8z"/>
		<path class="st0" d="M319.8,226.4c0,0.2,0,0.5-0.1,0.8c-0.1,0.3-0.3,0.6-0.5,0.9s-0.7,0.5-1.2,0.7c-0.5,0.2-1.3,0.3-2.2,0.3
			s-1.6-0.1-2.2-0.3c-0.5-0.2-0.9-0.5-1.2-0.8c-0.3-0.3-0.4-0.6-0.5-0.9c-0.1-0.3-0.1-0.6-0.1-0.8v-20.1c0-0.5-0.1-0.9-0.4-1.3
			c-0.2-0.4-0.6-0.6-1.2-0.6c-0.3,0-0.5,0.1-0.8,0.2c-0.2,0.1-0.4,0.3-0.7,0.4l-0.5-0.6c0.4-0.3,0.8-0.7,1.3-1
			c0.5-0.3,1-0.6,1.6-0.8c0.6-0.2,1.2-0.4,1.8-0.6s1.4-0.2,2.1-0.2c1.1,0,2,0.2,2.6,0.5c0.6,0.3,1.1,0.7,1.4,1.1
			c0.3,0.4,0.5,0.9,0.5,1.4c0.1,0.5,0.1,0.9,0.1,1.3V226.4z M311,195.8c0-0.5,0.1-0.9,0.3-1.4c0.2-0.4,0.5-0.8,0.9-1.2
			s0.8-0.6,1.4-0.8c0.5-0.2,1.1-0.3,1.7-0.3c0.6,0,1.1,0.1,1.7,0.3c0.5,0.2,1,0.5,1.3,0.8s0.7,0.7,0.9,1.2c0.2,0.4,0.3,0.9,0.3,1.4
			c0,0.5-0.1,1-0.3,1.4s-0.5,0.8-0.9,1.1c-0.4,0.3-0.8,0.6-1.3,0.8c-0.5,0.2-1.1,0.3-1.7,0.3c-0.6,0-1.2-0.1-1.7-0.3
			c-0.5-0.2-1-0.4-1.4-0.8c-0.4-0.3-0.7-0.7-0.9-1.1S311,196.3,311,195.8z"/>
		<path class="st0" d="M339.1,190.1c-0.5,0-0.9,0.1-1.4,0.3c-0.4,0.2-0.8,0.5-1.1,1s-0.6,1-0.8,1.8c-0.2,0.7-0.3,1.6-0.3,2.6v6.4
			h5.7v1.9h-5.7v20.5c0,2.4-0.3,4.5-0.9,6.5c-0.6,2-1.5,3.7-2.8,5.2c-1.2,1.4-2.8,2.6-4.7,3.4s-4.1,1.2-6.6,1.2
			c-0.9,0-1.7-0.1-2.5-0.2c-0.8-0.1-1.5-0.4-2.2-0.6c-0.6-0.3-1.1-0.6-1.5-0.9c-0.4-0.4-0.6-0.8-0.6-1.2c0-0.3,0-0.6,0.1-0.9
			c0.1-0.3,0.2-0.6,0.4-0.9c0.2-0.3,0.4-0.5,0.6-0.6c0.3-0.2,0.5-0.2,0.9-0.2c0.2,0,0.4,0.1,0.5,0.3c0.1,0.2,0.3,0.4,0.5,0.7
			c0.2,0.3,0.3,0.6,0.5,0.9c0.2,0.3,0.5,0.6,0.8,0.9c0.3,0.3,0.7,0.5,1.2,0.7c0.5,0.2,1,0.3,1.7,0.3c0.9,0,1.7-0.2,2.3-0.5
			c0.7-0.4,1.3-0.8,1.7-1.5s0.9-1.4,1.2-2.2c0.3-0.8,0.6-1.8,0.8-2.7c0.2-1,0.3-2,0.4-3c0.1-1.1,0.1-2.1,0.1-3.2V204h-4.8v-1.9h4.8
			v-3c0-1.5,0.2-2.9,0.6-4s0.9-2.1,1.5-2.9c0.6-0.8,1.3-1.4,2.1-2s1.6-0.9,2.4-1.2c0.8-0.3,1.6-0.5,2.4-0.6c0.8-0.1,1.4-0.2,2-0.2
			c1.2,0,2.3,0.1,3.3,0.3c1,0.2,1.8,0.4,2.4,0.7c0.6,0.3,1.1,0.7,1.5,1.1c0.3,0.4,0.5,0.8,0.5,1.2c0,0.3,0,0.6-0.1,0.9
			c-0.1,0.3-0.2,0.6-0.4,0.9c-0.2,0.3-0.4,0.5-0.6,0.7c-0.3,0.2-0.5,0.2-0.8,0.2c-0.2,0-0.4-0.1-0.5-0.3s-0.3-0.5-0.5-0.8
			s-0.4-0.7-0.6-1c-0.2-0.4-0.5-0.7-0.8-1c-0.3-0.3-0.7-0.6-1.1-0.8C340.2,190.2,339.7,190.1,339.1,190.1z"/>
		<path class="st0" d="M349.8,216.8c0,0.6,0.1,1.2,0.2,1.8c0.2,0.6,0.4,1.3,0.7,2c0.3,0.7,0.7,1.3,1.2,1.9c0.5,0.6,1,1.1,1.6,1.6
			s1.3,0.8,2,1.1c0.7,0.3,1.5,0.4,2.4,0.4c0.6,0,1.2-0.1,1.7-0.2c0.5-0.1,1-0.3,1.5-0.6c0.5-0.2,0.9-0.5,1.3-0.8
			c0.4-0.3,0.8-0.7,1.2-1l0.6,0.6c-0.4,0.5-0.9,1.1-1.5,1.8c-0.6,0.6-1.4,1.2-2.3,1.8s-1.9,1-3.1,1.4c-1.2,0.4-2.5,0.6-4,0.6
			c-1.5,0-3-0.3-4.4-0.8s-2.7-1.4-3.8-2.5c-1.1-1.1-2-2.5-2.7-4.1s-1-3.5-1-5.7c0-1.6,0.2-3,0.6-4.3s0.9-2.5,1.6-3.6s1.5-2,2.4-2.8
			c0.9-0.8,1.9-1.5,2.9-2c1-0.5,2-0.9,3.1-1.2c1-0.3,2.1-0.4,3-0.4c1.3,0,2.4,0.1,3.4,0.4s1.7,0.7,2.4,1.1c0.6,0.5,1.1,1,1.4,1.6
			s0.5,1.3,0.5,1.9c0,0.8-0.2,1.5-0.7,2.2c-0.5,0.6-1.1,1.2-1.9,1.7L349.8,216.8z M355.1,211.5c0.2-0.1,0.4-0.3,0.6-0.4
			s0.3-0.3,0.4-0.5c0.1-0.2,0.2-0.4,0.2-0.7c0-0.3,0.1-0.6,0.1-1c0-0.4,0-0.9-0.1-1.4c-0.1-0.5-0.3-1-0.5-1.5
			c-0.2-0.5-0.5-0.9-0.9-1.2c-0.3-0.3-0.8-0.5-1.2-0.5c-0.6,0-1.2,0.2-1.6,0.6c-0.4,0.4-0.8,0.9-1.1,1.4c-0.3,0.6-0.5,1.3-0.7,2
			c-0.2,0.8-0.3,1.5-0.4,2.3c-0.1,0.8-0.1,1.5-0.2,2.2s0,1.3,0,1.8L355.1,211.5z"/>
	</g>
</g>
</svg>
