<?xml version="1.0" standalone="no"?>
<!DOCTYPE svg PUBLIC "-//W3C//DTD SVG 20010904//EN"
 "http://www.w3.org/TR/2001/REC-SVG-20010904/DTD/svg10.dtd">
<svg version="1.0" xmlns="http://www.w3.org/2000/svg"
 width="500.000000pt" height="500.000000pt" viewBox="0 0 500.000000 500.000000"
 preserveAspectRatio="xMidYMid meet">
<metadata>
Created by potrace 1.11, written by Peter Selinger 2001-2013
</metadata>
<g transform="translate(0.000000,500.000000) scale(0.100000,-0.100000)"
fill="#000000" stroke="none">
<path d="M814 4401 c2 -3 -17 -7 -42 -8 -26 -2 -48 -7 -50 -12 -2 -6 -9 -8
-17 -5 -7 3 -23 0 -35 -6 -21 -11 -54 -21 -77 -22 -7 -1 -13 -5 -13 -9 0 -4
-13 -10 -30 -14 -16 -4 -30 -11 -30 -16 0 -6 -4 -7 -10 -4 -5 3 -10 1 -10 -5
0 -6 -4 -9 -9 -6 -5 3 -14 -1 -21 -9 -7 -8 -16 -12 -21 -9 -5 3 -9 0 -9 -6 0
-6 -8 -14 -17 -18 -35 -15 -93 -54 -93 -63 0 -5 -6 -9 -14 -9 -8 0 -16 -7 -20
-15 -3 -8 -1 -15 4 -15 5 0 12 -9 15 -20 8 -25 25 -25 68 0 37 22 123 34 133
19 3 -5 10 -7 15 -4 20 13 74 -63 83 -117 3 -15 8 -33 12 -39 4 -7 3 -9 -4 -5
-7 4 -10 -1 -9 -14 1 -11 5 -20 10 -20 4 0 5 -6 0 -12 -10 -17 -11 -29 -1 -56
5 -14 4 -21 -1 -17 -6 3 -9 -4 -8 -15 1 -11 5 -20 10 -20 5 0 5 -6 -1 -12 -12
-15 -12 -25 -1 -56 6 -14 5 -21 0 -17 -6 3 -9 -4 -8 -15 1 -11 5 -20 10 -20 4
0 5 -6 0 -12 -10 -17 -11 -29 -1 -56 5 -14 4 -21 -1 -17 -6 3 -9 -4 -8 -15 1
-11 5 -20 10 -20 4 0 5 -6 0 -12 -10 -17 -11 -29 -1 -56 5 -14 4 -21 -1 -17
-6 3 -9 -4 -8 -15 1 -11 5 -20 10 -20 5 0 5 -6 -1 -12 -12 -15 -12 -25 -1 -56
6 -14 5 -21 0 -17 -6 3 -9 -4 -8 -15 1 -11 5 -20 10 -20 5 0 5 -6 -1 -12 -12
-15 -12 -25 -1 -56 6 -14 5 -21 0 -17 -6 3 -9 -4 -8 -15 1 -11 5 -20 10 -20 4
0 5 -6 0 -12 -10 -17 -11 -29 -1 -56 5 -14 4 -21 -1 -17 -6 3 -9 -4 -8 -15 1
-11 5 -20 10 -20 5 0 4 -6 -2 -14 -13 -16 -11 -37 4 -48 6 -5 5 -8 -4 -8 -10
0 -11 -3 -2 -13 6 -8 8 -17 4 -21 -12 -12 -12 -36 0 -36 8 0 7 -3 -2 -9 -9 -6
-10 -11 -2 -15 6 -4 8 -13 4 -19 -12 -20 -12 -37 0 -37 8 0 7 -3 -2 -9 -9 -6
-10 -11 -2 -15 6 -4 8 -13 4 -19 -12 -20 -12 -37 0 -37 8 0 7 -3 -2 -9 -9 -6
-10 -11 -2 -15 6 -4 8 -13 4 -19 -12 -20 -12 -37 0 -37 8 0 7 -3 -2 -9 -9 -6
-10 -11 -2 -15 6 -4 8 -13 4 -19 -12 -20 -12 -37 0 -37 8 0 7 -3 -2 -9 -9 -6
-10 -11 -2 -15 6 -4 8 -13 4 -19 -12 -20 -12 -37 0 -37 8 0 7 -3 -2 -9 -9 -6
-10 -10 -2 -16 9 -5 9 -11 -1 -22 -15 -19 -15 -23 4 -34 10 -7 10 -9 0 -9 -8
0 -10 -5 -6 -12 11 -17 13 -48 3 -42 -4 2 -7 -5 -6 -16 1 -11 5 -20 10 -20 5
0 5 -6 -1 -12 -12 -15 -12 -25 -1 -56 6 -14 5 -21 0 -17 -6 3 -9 -4 -8 -15 1
-11 5 -20 10 -20 5 0 3 -7 -4 -17 -8 -9 -12 -19 -10 -22 11 -19 20 -51 12 -46
-6 3 -9 -4 -8 -15 1 -11 5 -20 10 -20 5 0 3 -7 -4 -17 -8 -9 -12 -19 -10 -22
11 -19 20 -51 12 -46 -6 3 -9 -4 -8 -15 1 -11 5 -20 10 -20 5 0 3 -7 -4 -17
-8 -9 -12 -19 -10 -22 11 -19 20 -51 12 -46 -6 3 -9 -4 -8 -15 1 -11 5 -20 10
-20 5 0 5 -6 -1 -12 -15 -18 -15 -20 -3 -51 7 -18 7 -26 1 -22 -12 8 -12 8 -1
-33 6 -20 6 -30 0 -27 -11 7 -11 -2 0 -30 5 -11 4 -28 -1 -39 -6 -11 -6 -16
-1 -13 6 4 10 -8 10 -26 1 -69 7 -127 13 -127 3 0 6 -16 5 -35 -1 -20 2 -38 7
-41 4 -3 6 -10 2 -15 -3 -5 -1 -16 6 -24 8 -9 8 -15 0 -20 -7 -4 -8 -11 -2
-18 14 -17 41 -114 35 -121 -4 -3 -1 -6 5 -6 7 0 12 -6 12 -14 0 -8 10 -36 22
-63 12 -26 21 -51 20 -55 -1 -5 3 -8 9 -8 5 0 7 -4 4 -10 -3 -5 -2 -10 3 -10
6 0 15 -14 21 -30 5 -17 15 -30 21 -30 6 0 9 -4 6 -9 -3 -4 3 -16 14 -26 11
-10 20 -22 20 -28 0 -5 36 -45 80 -89 44 -45 80 -78 80 -74 0 4 12 -4 27 -18
15 -14 30 -23 35 -20 4 3 8 1 8 -5 0 -5 25 -22 55 -37 31 -14 58 -30 61 -35 2
-4 11 -6 19 -2 8 3 15 1 15 -5 0 -9 39 -22 81 -27 9 -1 23 -6 30 -11 8 -5 19
-9 24 -10 6 -1 24 -4 42 -7 17 -3 36 -8 42 -11 5 -4 13 -2 16 4 5 8 11 8 20 0
7 -6 38 -11 69 -13 31 -1 56 -6 56 -12 0 -5 4 -4 9 4 6 9 10 10 16 2 5 -9 10
-9 21 0 11 9 14 8 14 -2 0 -10 3 -10 12 -1 7 7 17 8 30 1 13 -7 18 -6 18 2 0
8 5 8 16 -2 9 -8 18 -9 22 -3 4 5 21 9 37 9 17 0 59 5 95 11 36 7 68 10 73 7
4 -2 7 0 7 5 0 5 6 9 13 10 34 2 115 27 155 48 15 8 33 14 40 14 6 0 12 5 12
11 0 5 5 7 10 4 6 -3 10 -1 10 5 0 6 5 8 10 5 6 -3 10 -1 10 4 0 6 3 10 8 9
10 -2 72 35 72 45 0 4 5 7 11 7 17 0 169 132 169 146 0 3 12 17 26 31 15 15
49 61 75 102 27 42 53 81 57 86 5 6 7 16 4 23 -2 6 1 12 7 12 6 0 11 4 11 9 0
5 7 25 15 45 8 20 16 39 16 43 1 5 6 17 12 28 6 11 12 22 12 25 1 3 9 32 19
65 10 33 20 69 22 80 2 11 7 31 10 45 3 14 7 41 8 60 1 20 5 40 8 46 4 6 8 32
9 60 1 27 6 56 10 65 4 8 4 21 -1 29 -5 8 -6 19 -2 24 9 15 9 77 -1 83 -4 2
-3 11 3 18 7 9 8 15 1 19 -7 5 -7 15 -1 31 7 17 6 25 -1 25 -8 0 -8 4 0 13 6
8 8 16 5 20 -6 5 -12 65 -16 150 -2 26 -5 47 -8 47 -3 0 -6 10 -7 23 -1 33
-11 88 -22 126 -6 18 -10 36 -9 40 1 3 -2 14 -5 24 -18 45 -20 53 -23 67 -2 8
-7 23 -13 35 -10 22 -22 57 -22 65 0 3 -8 13 -16 23 -9 9 -13 17 -9 17 3 0 0
13 -9 30 -8 16 -16 33 -17 37 -1 5 -10 17 -20 27 -9 10 -15 22 -13 26 3 5 -2
10 -10 14 -8 3 -15 12 -15 21 0 8 -4 15 -8 15 -4 0 -15 12 -24 28 -23 38 -114
132 -128 132 -6 0 -8 5 -5 10 3 6 1 10 -5 10 -16 0 -60 36 -55 44 3 3 2 4 -1
2 -3 -3 -27 8 -52 23 -26 15 -66 33 -89 40 -24 8 -43 18 -43 22 0 4 -11 6 -25
4 -14 -1 -25 1 -25 6 0 4 -8 7 -17 7 -10 0 -36 4 -58 9 -54 12 -262 6 -271 -8
-2 -4 -16 -6 -29 -3 -15 3 -25 0 -25 -7 0 -7 -3 -10 -6 -6 -9 9 -174 -52 -174
-64 0 -4 -11 -10 -25 -13 -14 -4 -25 -11 -25 -16 0 -6 -4 -10 -10 -10 -5 0
-20 -9 -32 -19 -13 -11 -34 -29 -47 -40 -13 -12 -28 -21 -33 -21 -5 0 -6 -5
-2 -12 4 -7 3 -8 -5 -4 -7 5 -9 16 -5 28 4 15 3 18 -6 13 -9 -6 -11 -4 -4 6
13 22 14 43 1 51 -7 5 -8 8 -1 8 11 0 13 74 2 85 -4 4 -3 18 2 31 6 14 6 26
-1 29 -5 4 -6 12 -2 18 12 20 13 68 1 61 -7 -5 -8 -2 -2 7 13 21 14 39 1 39
-8 0 -8 3 -2 8 14 10 17 65 3 56 -7 -5 -8 -2 -2 7 11 19 13 58 2 65 -4 3 -5
11 -1 17 13 20 12 41 0 49 -7 5 -8 8 -1 8 9 0 12 73 4 90 -1 3 -2 9 0 15 8 41
6 75 -4 75 -7 0 -8 3 -1 8 12 8 13 41 3 58 -4 6 -4 14 -1 18 13 12 13 46 0 46
-7 0 -8 3 -2 8 14 9 15 82 2 82 -6 0 -2 7 9 16 10 8 13 12 6 9 -10 -5 -12 0
-9 24 3 17 1 34 -4 37 -6 3 -6 11 -1 17 7 11 9 32 2 40 -1 1 -3 13 -5 27 -5
48 -16 93 -26 111 -5 11 -7 19 -4 19 2 0 -2 8 -10 18 -8 9 -28 34 -45 56 -16
21 -30 35 -30 30 0 -5 -4 -4 -8 1 -13 19 -69 55 -76 48 -3 -3 -6 0 -6 7 0 7
-3 10 -7 7 -3 -4 -12 -2 -20 4 -7 6 -13 8 -13 4 0 -4 -7 -2 -15 5 -8 6 -19 9
-25 5 -5 -3 -10 -1 -10 6 0 9 -3 9 -14 0 -10 -9 -16 -9 -21 -1 -4 7 -45 10
-111 9 -57 -1 -102 -4 -100 -8z m810 -1542 c10 9 75 9 96 1 3 -1 9 -2 14 -1 4
1 14 -4 22 -10 8 -6 14 -8 14 -5 0 7 11 -1 65 -50 19 -17 35 -37 35 -43 0 -7
3 -10 8 -7 4 2 16 -13 26 -35 11 -21 23 -39 28 -39 5 0 7 -4 3 -9 -3 -6 3 -24
14 -42 11 -18 18 -36 15 -41 -3 -4 -1 -8 3 -8 5 0 9 -8 10 -17 1 -23 8 -51 21
-84 6 -15 8 -30 5 -33 -4 -3 -1 -6 6 -6 7 0 9 -4 6 -10 -3 -5 -1 -28 5 -51 6
-22 13 -58 14 -80 2 -22 6 -42 10 -46 3 -3 1 -12 -5 -20 -6 -7 -7 -13 -2 -13
9 0 12 -26 19 -165 1 -33 3 -61 4 -62 7 -8 5 -30 -3 -40 -6 -8 -6 -13 0 -13 5
0 9 -9 10 -20 1 -13 -2 -18 -9 -14 -7 4 -8 2 -4 -5 11 -17 14 -131 4 -137 -5
-3 -3 -13 4 -22 10 -12 10 -16 1 -19 -9 -3 -10 -10 -3 -22 5 -10 6 -21 3 -25
-11 -11 -11 -56 0 -56 6 0 6 -5 0 -12 -5 -7 -11 -40 -12 -73 -5 -108 -6 -130
-12 -140 -3 -5 -5 -27 -5 -48 1 -20 -3 -37 -7 -37 -5 0 -6 -4 -2 -9 3 -5 1
-12 -4 -16 -6 -3 -8 -12 -5 -19 3 -8 0 -34 -7 -57 -7 -24 -12 -50 -10 -56 1
-7 -2 -13 -8 -13 -5 0 -8 -8 -7 -17 2 -10 -3 -28 -11 -40 -8 -12 -15 -24 -15
-27 0 -18 -12 -46 -19 -46 -5 0 -8 -3 -7 -8 3 -10 -33 -64 -57 -84 -11 -10
-25 -22 -32 -28 -7 -5 -17 -10 -23 -10 -5 0 -10 -5 -10 -11 0 -5 -4 -8 -9 -4
-5 3 -17 -2 -25 -11 -9 -8 -16 -11 -16 -5 0 7 -8 7 -24 1 -13 -5 -26 -7 -29
-4 -4 4 -27 10 -73 18 -31 5 -114 78 -114 99 0 5 -4 5 -10 2 -6 -3 -7 1 -4 9
3 9 1 16 -5 16 -6 0 -11 7 -11 15 0 8 -4 15 -10 15 -5 0 -10 12 -10 26 0 15
-4 23 -10 19 -6 -4 -9 -3 -8 2 4 15 -35 148 -46 155 -8 5 -7 8 1 8 9 0 9 8 1
30 -5 17 -7 37 -4 45 3 8 2 15 -3 15 -4 0 -8 6 -8 13 -3 56 -8 84 -16 95 -6 8
-6 12 1 12 6 0 9 8 7 18 -2 9 -4 17 -5 17 -3 0 -8 80 -11 173 -1 51 -6 95 -11
98 -5 3 -5 11 -1 17 11 17 10 127 0 127 -5 0 -5 6 2 13 6 8 8 24 6 37 -2 13 1
30 8 39 9 11 9 13 0 8 -6 -4 -14 -3 -17 2 -4 5 -2 12 3 16 12 7 10 45 -2 45
-4 0 -5 6 0 13 11 17 10 147 -1 147 -4 0 -4 6 3 13 6 8 8 24 6 37 -2 13 1 30
8 39 9 11 9 13 0 8 -6 -4 -14 -3 -17 2 -4 5 -2 12 3 16 12 7 10 45 -2 45 -5 0
-5 6 0 13 11 13 11 72 0 83 -3 4 -3 12 1 18 11 17 9 90 -3 98 -6 5 -6 8 3 8 6
0 12 11 12 25 0 14 5 25 10 25 6 0 10 6 9 13 -2 19 12 57 22 57 5 0 9 7 9 15
0 8 5 15 10 15 6 0 10 5 10 11 0 12 59 72 76 77 5 1 18 11 29 21 12 9 26 16
32 14 6 -2 15 2 19 8 6 10 9 10 12 1 3 -9 8 -10 16 -3z"/>
<path d="M3817 3154 c-1 -1 -24 -4 -52 -8 -27 -3 -61 -9 -75 -12 -14 -3 -37
-7 -52 -8 -14 -1 -33 -8 -42 -15 -8 -7 -20 -10 -25 -7 -5 4 -12 2 -16 -4 -3
-5 -15 -10 -26 -10 -10 0 -19 -4 -19 -9 0 -5 -13 -12 -30 -16 -16 -4 -30 -11
-30 -16 0 -5 -5 -9 -11 -9 -14 0 -138 -92 -139 -102 0 -4 -11 -19 -25 -34 -32
-35 -85 -126 -85 -148 0 -9 -4 -16 -9 -16 -5 0 -8 -8 -7 -17 2 -10 -2 -21 -8
-25 -7 -5 -6 -8 4 -8 13 0 13 -1 0 -10 -11 -7 -14 -32 -14 -117 1 -112 4 -140
17 -160 5 -7 5 -13 1 -13 -3 0 0 -8 7 -17 9 -11 10 -14 2 -10 -13 8 26 -74 40
-84 5 -3 8 -9 7 -13 -4 -11 33 -79 50 -94 13 -12 13 -13 0 -7 -8 4 -6 -1 4 -9
11 -9 16 -16 10 -16 -5 0 -4 -4 2 -8 6 -4 24 -27 42 -52 17 -25 41 -57 54 -72
13 -14 34 -40 48 -58 14 -17 60 -68 103 -113 42 -44 77 -83 77 -85 0 -3 12
-17 28 -32 25 -24 108 -117 157 -174 11 -13 27 -34 35 -46 8 -13 22 -31 31
-40 9 -9 27 -37 40 -61 13 -24 26 -46 29 -49 3 -3 12 -25 20 -48 19 -60 17
-158 -5 -220 -18 -50 -97 -147 -109 -135 -3 4 -6 2 -6 -3 0 -9 -70 -40 -79
-35 -2 2 -7 -1 -10 -6 -11 -15 -91 -32 -91 -19 0 8 -2 8 -8 0 -8 -12 -146 -14
-158 -1 -4 4 -20 7 -36 7 -15 0 -28 5 -28 12 0 6 -3 8 -7 5 -3 -4 -12 -2 -20
4 -7 6 -13 8 -13 3 0 -5 -4 -3 -9 4 -4 7 -17 14 -29 15 -11 0 -18 5 -16 9 3 4
0 8 -6 8 -7 0 -22 8 -35 18 -12 9 -33 24 -46 32 -13 8 -45 36 -71 63 -53 52
-63 52 -116 4 l-22 -21 22 -23 c12 -13 18 -23 14 -23 -3 0 9 -15 29 -32 19
-18 35 -39 35 -45 0 -7 4 -13 10 -13 5 0 29 -19 52 -42 24 -22 77 -63 118 -89
41 -27 80 -53 87 -59 7 -5 19 -10 28 -10 8 0 15 -5 15 -11 0 -5 5 -7 10 -4 6
3 10 1 10 -6 0 -7 3 -10 6 -6 4 3 19 0 34 -8 15 -8 30 -11 34 -8 3 4 6 1 6 -6
0 -8 7 -11 15 -7 8 3 15 2 15 -3 0 -10 66 -26 93 -23 9 1 17 -3 17 -9 0 -6 9
-9 20 -6 11 3 22 2 25 -2 2 -4 14 -7 27 -6 13 1 30 -1 39 -6 9 -5 19 -5 23 -2
11 11 36 12 36 1 0 -7 5 -6 14 1 11 9 16 9 21 0 6 -8 10 -7 16 2 8 12 11 11
19 -1 8 -13 10 -13 10 -1 0 11 3 12 12 3 6 -6 18 -8 27 -3 9 5 26 7 39 6 12
-1 22 1 22 4 0 3 15 6 33 7 30 1 46 4 107 19 14 4 31 7 38 7 6 1 12 5 12 10 0
4 10 8 22 8 36 0 186 82 238 130 28 26 52 44 55 42 3 -3 5 -1 5 5 0 5 14 25
30 43 30 33 115 190 103 190 -3 0 0 7 7 15 7 9 10 18 7 21 -3 3 0 20 7 37 7
18 12 39 11 47 0 8 4 18 10 22 6 5 5 8 -3 8 -8 0 -10 5 -5 13 13 20 13 157 -1
157 -6 0 -4 5 4 10 13 9 13 11 0 20 -13 9 -13 10 0 10 9 0 11 3 5 8 -6 4 -12
21 -14 37 -1 17 -6 32 -10 35 -3 3 -8 16 -9 30 -2 14 -8 29 -13 35 -5 5 -9 17
-9 27 0 10 -4 18 -10 18 -5 0 -10 5 -10 10 0 6 -19 41 -41 78 -23 37 -42 73
-42 79 0 7 -2 11 -5 9 -2 -3 -25 21 -50 52 -39 48 -97 114 -150 168 -7 8 -18
14 -23 14 -5 0 -9 6 -9 14 0 8 -9 18 -20 21 -11 3 -20 14 -20 22 0 9 -2 14 -5
11 -7 -7 -103 81 -245 223 -127 127 -170 177 -170 198 0 8 -3 11 -7 7 -14 -13
-61 107 -59 151 0 24 -3 45 -9 47 -5 3 -4 5 3 5 7 1 10 5 7 11 -8 12 15 90 27
90 4 0 8 7 8 15 0 7 8 19 18 24 9 6 13 11 8 11 -12 0 40 40 53 40 6 0 11 5 11
11 0 6 8 9 18 7 10 -3 23 0 29 7 7 8 43 11 109 8 122 -4 124 -4 124 -16 0 -6
3 -8 6 -4 7 7 62 -19 79 -37 19 -22 35 -56 35 -77 0 -23 -14 -39 -50 -55 -28
-13 -107 -74 -95 -74 4 0 2 -6 -4 -13 -6 -8 -8 -17 -4 -20 3 -4 2 -7 -4 -7 -5
0 -8 -17 -5 -37 2 -21 4 -44 4 -50 1 -7 5 -13 10 -13 4 0 8 -7 8 -15 0 -8 13
-23 30 -34 16 -10 27 -21 22 -25 -4 -4 -2 -7 3 -6 6 1 12 1 15 0 48 -18 159
-20 210 -3 26 9 61 32 82 54 21 22 35 39 32 39 -2 0 3 14 12 32 17 33 23 156
8 180 -4 7 -9 22 -10 34 -3 30 -54 125 -71 131 -7 3 -13 9 -13 14 0 9 -38 48
-66 66 -19 13 -145 79 -154 81 -3 0 -12 3 -20 5 -50 16 -110 29 -142 30 -21 1
-38 4 -38 7 0 7 -265 20 -273 14z"/>
</g>
</svg>
